<svg width="33" height="32" viewBox="0 0 33 32" fill="none" xmlns="http://www.w3.org/2000/svg">
<path d="M32.7908 29.1719C30.7556 25.6001 27.5778 22.817 23.7687 21.2706C25.6629 19.85 27.0621 17.8693 27.7681 15.6093C28.4741 13.3493 28.4511 10.9244 27.7023 8.67816C26.9536 6.43193 25.5171 4.47822 23.5963 3.09378C21.6754 1.70934 19.3677 0.964355 17 0.964355C14.6323 0.964355 12.3245 1.70934 10.4037 3.09378C8.48292 4.47822 7.0464 6.43193 6.29766 8.67816C5.54891 10.9244 5.5259 13.3493 6.23188 15.6093C6.93787 17.8693 8.33705 19.85 10.2312 21.2706C6.42222 22.817 3.24435 25.6001 1.20921 29.1719C1.0831 29.3747 0.999055 29.6008 0.96206 29.8367C0.925065 30.0726 0.935878 30.3135 0.993857 30.5451C1.05184 30.7768 1.1558 30.9944 1.29956 31.185C1.44332 31.3757 1.62395 31.5355 1.83071 31.655C2.03746 31.7744 2.26613 31.8511 2.50311 31.8804C2.74009 31.9097 2.98054 31.8911 3.21017 31.8256C3.43981 31.7602 3.65394 31.6492 3.83983 31.4993C4.02572 31.3494 4.17958 31.1637 4.29226 30.9532C6.98194 26.3041 11.7319 23.5313 17 23.5313C22.268 23.5313 27.018 26.3056 29.7077 30.9532C29.9519 31.3458 30.3393 31.6282 30.7878 31.7404C31.2364 31.8527 31.711 31.7861 32.1114 31.5548C32.5118 31.3235 32.8065 30.9455 32.9333 30.5009C33.0601 30.0562 33.009 29.5796 32.7908 29.1719ZM9.28124 12.2501C9.28124 10.7234 9.73394 9.23109 10.5821 7.96175C11.4302 6.69241 12.6357 5.70308 14.0462 5.11886C15.4566 4.53465 17.0086 4.38179 18.5058 4.67962C20.0031 4.97745 21.3785 5.71259 22.458 6.79208C23.5375 7.87156 24.2726 9.24691 24.5704 10.7442C24.8683 12.2415 24.7154 13.7935 24.1312 15.2039C23.547 16.6143 22.5576 17.8198 21.2883 18.668C20.019 19.5161 18.5266 19.9688 17 19.9688C14.9536 19.9665 12.9917 19.1525 11.5446 17.7054C10.0976 16.2584 9.2836 14.2965 9.28124 12.2501Z" fill="#0EF387"/>
</svg>
